<?xml version="1.0" ?><svg baseProfile="tiny" height="512px" id="Layer_1" version="1.2" viewBox="0 0 512 512" width="512px" xml:space="preserve" xmlns="http://www.w3.org/2000/svg" xmlns:xlink="http://www.w3.org/1999/xlink"><path d="M469.213,415.183V199.845c0-19.814-16.075-35.89-35.89-35.89h-35.89v35.89v35.89v179.448l-35.89,89.725h143.559  L469.213,415.183z"/><path d="M110.316,235.734v-35.89v-35.89h-35.89c-19.82,0-35.89,16.064-35.89,35.89v215.338l-35.89,89.725h143.559l-35.89-89.725  V235.734z"/><path d="M378.893,146.01h0.596v-17.968c0-69.349-56.253-125.59-125.613-125.59c-69.361,0-125.614,56.241-125.614,125.59v17.968  h0.596H378.893z M325.654,92.176c9.919,0,17.944,8.05,17.944,17.945c0,9.907-8.025,17.945-17.944,17.945  s-17.945-8.038-17.945-17.945C307.709,100.226,315.735,92.176,325.654,92.176 M253.875,29.369c19.79,0,35.89,16.099,35.89,35.89  c0,19.802-16.1,35.89-35.89,35.89c-19.838,0-35.89-16.087-35.89-35.89C217.985,45.468,234.037,29.369,253.875,29.369"/><path d="M379.488,163.955H128.261v251.228l35.89,35.89h179.448l35.89-35.89V163.955z M307.709,307.514H200.04  c-9.918,0-17.945-8.025-17.945-17.944s8.026-17.945,17.945-17.945h107.669c9.919,0,17.945,8.026,17.945,17.945  S317.628,307.514,307.709,307.514 M307.709,235.734H200.04c-9.918,0-17.945-8.038-17.945-17.945c0-9.907,8.026-17.945,17.945-17.945  h107.669c9.919,0,17.945,8.038,17.945,17.945C325.654,227.697,317.628,235.734,307.709,235.734"/></svg>
